<svg width="428" height="97" viewBox="0 0 428 97" fill="none" xmlns="http://www.w3.org/2000/svg">
<g filter="url(#filter0_d_10829_21405)">
<rect x="3.5" width="421" height="90" rx="45" fill="white"/>
<rect x="3.92171" y="0.421712" width="420.157" height="89.1566" rx="44.5783" stroke="black" stroke-opacity="0.31" stroke-width="0.843424"/>
<path d="M52.4257 71.2621C67.1955 71.2621 79.1688 59.29 79.1688 44.5217C79.1688 29.7534 67.1955 17.7814 52.4257 17.7814C37.6559 17.7814 25.6826 29.7534 25.6826 44.5217C25.6826 59.29 37.6559 71.2621 52.4257 71.2621Z" fill="#F06040"/>
<path d="M30.3369 59.6061C30.3369 59.6061 48.009 53.8173 79.1553 43.6614C79.1553 43.6614 80.8613 60.2932 63.6196 68.9684C63.6196 68.9684 55.1173 73.0434 45.7896 70.4294C45.7896 70.4294 36.5014 68.6762 30.3369 59.6061Z" fill="#2B286C"/>
<path d="M99.3389 58.3472V32.5617H109.609C111.924 32.5617 113.697 33.2266 114.928 34.5565C116.184 35.8618 116.812 37.6597 116.812 39.9501C116.812 42.2405 116.184 44.0506 114.928 45.3805C113.697 46.6858 111.924 47.3385 109.609 47.3385H102.442V58.3472H99.3389ZM102.442 44.6048H109.609C110.84 44.6048 111.788 44.2846 112.453 43.6443C113.143 43.0039 113.488 42.0927 113.488 40.9106V38.9896C113.488 37.8074 113.143 36.8962 112.453 36.2559C111.788 35.6155 110.84 35.2954 109.609 35.2954H102.442V44.6048ZM127.559 58.7905C126.279 58.7905 125.109 58.5565 124.05 58.0886C122.991 57.6206 122.08 56.9557 121.316 56.0937C120.577 55.2071 119.999 54.1604 119.58 52.9536C119.161 51.7222 118.952 50.3431 118.952 48.8161C118.952 47.3138 119.161 45.947 119.58 44.7156C119.999 43.4842 120.577 42.4375 121.316 41.5755C122.08 40.6889 122.991 40.0116 124.05 39.5437C125.109 39.0758 126.279 38.8418 127.559 38.8418C128.84 38.8418 129.998 39.0758 131.032 39.5437C132.091 40.0116 133.002 40.6889 133.766 41.5755C134.529 42.4375 135.12 43.4842 135.539 44.7156C135.958 45.947 136.167 47.3138 136.167 48.8161C136.167 50.3431 135.958 51.7222 135.539 52.9536C135.12 54.1604 134.529 55.2071 133.766 56.0937C133.002 56.9557 132.091 57.6206 131.032 58.0886C129.998 58.5565 128.84 58.7905 127.559 58.7905ZM127.559 56.1676C129.16 56.1676 130.466 55.675 131.475 54.6899C132.485 53.7048 132.99 52.2025 132.99 50.183V47.4493C132.99 45.4298 132.485 43.9275 131.475 42.9424C130.466 41.9572 129.16 41.4647 127.559 41.4647C125.959 41.4647 124.653 41.9572 123.644 42.9424C122.634 43.9275 122.129 45.4298 122.129 47.4493V50.183C122.129 52.2025 122.634 53.7048 123.644 54.6899C124.653 55.675 125.959 56.1676 127.559 56.1676ZM138.483 39.2851H141.364L143.396 47.5232L145.428 55.8721H145.502L147.829 47.5232L150.23 39.2851H152.853L155.328 47.5232L157.693 55.8721H157.766L159.724 47.5232L161.793 39.2851H164.564L159.503 58.3472H155.845L153.186 49.1856L151.523 43.3857H151.449L149.824 49.1856L147.164 58.3472H143.581L138.483 39.2851ZM175.45 58.7905C174.145 58.7905 172.963 58.5565 171.904 58.0886C170.87 57.6206 169.971 56.9557 169.207 56.0937C168.468 55.2071 167.89 54.1604 167.471 52.9536C167.077 51.7222 166.88 50.3431 166.88 48.8161C166.88 47.3138 167.077 45.947 167.471 44.7156C167.89 43.4842 168.468 42.4375 169.207 41.5755C169.971 40.6889 170.87 40.0116 171.904 39.5437C172.963 39.0758 174.145 38.8418 175.45 38.8418C176.731 38.8418 177.876 39.0758 178.886 39.5437C179.896 40.0116 180.758 40.6643 181.472 41.5016C182.186 42.3144 182.728 43.2872 183.097 44.42C183.491 45.5529 183.688 46.7966 183.688 48.1512V49.555H169.983V50.4416C169.983 51.2543 170.106 52.0178 170.352 52.732C170.623 53.4216 170.993 54.025 171.461 54.5421C171.953 55.0593 172.544 55.4657 173.234 55.7612C173.948 56.0568 174.748 56.2045 175.635 56.2045C176.842 56.2045 177.889 55.9213 178.775 55.3549C179.686 54.7884 180.388 53.9757 180.881 52.9167L182.987 54.4313C182.371 55.7366 181.41 56.7956 180.105 57.6083C178.8 58.3964 177.248 58.7905 175.45 58.7905ZM175.45 41.3169C174.638 41.3169 173.899 41.4647 173.234 41.7602C172.569 42.0311 171.99 42.4252 171.498 42.9424C171.03 43.4596 170.66 44.0753 170.389 44.7895C170.118 45.479 169.983 46.2425 169.983 47.0799V47.3385H180.511V46.9321C180.511 45.2328 180.043 43.8782 179.108 42.8685C178.196 41.8341 176.977 41.3169 175.45 41.3169ZM188.189 58.3472V39.2851H191.144V42.7946H191.329C191.674 41.8834 192.29 41.0706 193.176 40.3564C194.063 39.6422 195.282 39.2851 196.833 39.2851H197.979V42.2405H196.242C194.642 42.2405 193.385 42.5483 192.474 43.164C191.588 43.7551 191.144 44.5062 191.144 45.4175V58.3472H188.189ZM208.371 58.7905C207.065 58.7905 205.883 58.5565 204.824 58.0886C203.79 57.6206 202.891 56.9557 202.127 56.0937C201.389 55.2071 200.81 54.1604 200.391 52.9536C199.997 51.7222 199.8 50.3431 199.8 48.8161C199.8 47.3138 199.997 45.947 200.391 44.7156C200.81 43.4842 201.389 42.4375 202.127 41.5755C202.891 40.6889 203.79 40.0116 204.824 39.5437C205.883 39.0758 207.065 38.8418 208.371 38.8418C209.651 38.8418 210.796 39.0758 211.806 39.5437C212.816 40.0116 213.678 40.6643 214.392 41.5016C215.106 42.3144 215.648 43.2872 216.018 44.42C216.412 45.5529 216.609 46.7966 216.609 48.1512V49.555H202.903V50.4416C202.903 51.2543 203.026 52.0178 203.273 52.732C203.543 53.4216 203.913 54.025 204.381 54.5421C204.873 55.0593 205.464 55.4657 206.154 55.7612C206.868 56.0568 207.669 56.2045 208.555 56.2045C209.762 56.2045 210.809 55.9213 211.695 55.3549C212.607 54.7884 213.308 53.9757 213.801 52.9167L215.907 54.4313C215.291 55.7366 214.331 56.7956 213.025 57.6083C211.72 58.3964 210.168 58.7905 208.371 58.7905ZM208.371 41.3169C207.558 41.3169 206.819 41.4647 206.154 41.7602C205.489 42.0311 204.91 42.4252 204.418 42.9424C203.95 43.4596 203.58 44.0753 203.309 44.7895C203.039 45.479 202.903 46.2425 202.903 47.0799V47.3385H213.432V46.9321C213.432 45.2328 212.964 43.8782 212.028 42.8685C211.117 41.8341 209.897 41.3169 208.371 41.3169ZM233.3 55.244H233.152C231.995 57.6083 230.135 58.7905 227.574 58.7905C226.392 58.7905 225.321 58.5565 224.36 58.0886C223.4 57.6206 222.575 56.9557 221.885 56.0937C221.22 55.2317 220.703 54.185 220.333 52.9536C219.989 51.7222 219.816 50.3431 219.816 48.8161C219.816 47.2892 219.989 45.91 220.333 44.6786C220.703 43.4472 221.22 42.4006 221.885 41.5386C222.575 40.6766 223.4 40.0116 224.36 39.5437C225.321 39.0758 226.392 38.8418 227.574 38.8418C228.904 38.8418 230.037 39.1373 230.973 39.7284C231.933 40.2949 232.66 41.1815 233.152 42.3882H233.3V31.0101H236.255V58.3472H233.3V55.244ZM228.387 56.1306C229.052 56.1306 229.68 56.0445 230.271 55.8721C230.886 55.6997 231.416 55.4534 231.859 55.1332C232.303 54.7884 232.647 54.3821 232.894 53.9141C233.165 53.4216 233.3 52.8674 233.3 52.2517V45.1589C233.3 44.6417 233.165 44.1615 232.894 43.7181C232.647 43.2502 232.303 42.8562 231.859 42.536C231.416 42.2158 230.886 41.9696 230.271 41.7972C229.68 41.6001 229.052 41.5016 228.387 41.5016C226.712 41.5016 225.394 42.0311 224.434 43.0901C223.473 44.1245 222.993 45.4914 222.993 47.1907V50.4416C222.993 52.1409 223.473 53.5201 224.434 54.5791C225.394 55.6135 226.712 56.1306 228.387 56.1306ZM250.53 31.0101H253.485V42.3882H253.633C254.126 41.1815 254.84 40.2949 255.776 39.7284C256.736 39.1373 257.881 38.8418 259.211 38.8418C260.393 38.8418 261.465 39.0758 262.425 39.5437C263.386 40.0116 264.199 40.6766 264.863 41.5386C265.553 42.4006 266.07 43.4472 266.415 44.6786C266.784 45.91 266.969 47.2892 266.969 48.8161C266.969 50.3431 266.784 51.7222 266.415 52.9536C266.07 54.185 265.553 55.2317 264.863 56.0937C264.199 56.9557 263.386 57.6206 262.425 58.0886C261.465 58.5565 260.393 58.7905 259.211 58.7905C256.625 58.7905 254.766 57.6083 253.633 55.244H253.485V58.3472H250.53V31.0101ZM258.399 56.1306C260.073 56.1306 261.391 55.6135 262.351 54.5791C263.312 53.5201 263.792 52.1409 263.792 50.4416V47.1907C263.792 45.4914 263.312 44.1245 262.351 43.0901C261.391 42.0311 260.073 41.5016 258.399 41.5016C257.734 41.5016 257.093 41.6001 256.478 41.7972C255.887 41.9696 255.369 42.2158 254.926 42.536C254.483 42.8562 254.126 43.2502 253.855 43.7181C253.608 44.1615 253.485 44.6417 253.485 45.1589V52.2517C253.485 52.8674 253.608 53.4216 253.855 53.9141C254.126 54.3821 254.483 54.7884 254.926 55.1332C255.369 55.4534 255.887 55.6997 256.478 55.8721C257.093 56.0445 257.734 56.1306 258.399 56.1306ZM283.157 39.2851H286.075L277.542 62.7802C277.32 63.3466 277.098 63.8146 276.877 64.184C276.655 64.578 276.384 64.8859 276.064 65.1075C275.744 65.3292 275.338 65.4893 274.845 65.5878C274.377 65.6863 273.798 65.7356 273.109 65.7356H271.594V63.1496H274.586L276.027 59.086L268.897 39.2851H271.853L276.434 52.2517L277.32 55.3549H277.505L278.539 52.2517L283.157 39.2851ZM297.725 58.3472V32.5617H314.718V36.8839H302.601V43.1271H313.315V47.4493H302.601V54.025H314.718V58.3472H297.725ZM326.46 58.7905C325.032 58.7905 323.763 58.5565 322.655 58.0886C321.547 57.6206 320.611 56.9434 319.848 56.0568C319.109 55.1702 318.542 54.1112 318.148 52.8798C317.754 51.6237 317.557 50.2199 317.557 48.6684C317.557 47.1168 317.754 45.7253 318.148 44.4939C318.542 43.2625 319.109 42.2158 319.848 41.3539C320.611 40.4673 321.547 39.79 322.655 39.3221C323.763 38.8541 325.032 38.6202 326.46 38.6202C328.406 38.6202 330.007 39.0511 331.263 39.9131C332.543 40.7751 333.467 41.9696 334.033 43.4965L330.154 45.2328C329.933 44.42 329.514 43.7551 328.898 43.2379C328.307 42.6961 327.495 42.4252 326.46 42.4252C325.13 42.4252 324.133 42.8439 323.468 43.6812C322.828 44.5186 322.507 45.6145 322.507 46.969V50.4785C322.507 51.8331 322.828 52.929 323.468 53.7664C324.133 54.5791 325.13 54.9854 326.46 54.9854C327.593 54.9854 328.467 54.7022 329.083 54.1358C329.699 53.5447 330.179 52.8182 330.524 51.9562L334.144 53.6925C333.504 55.3918 332.531 56.6725 331.226 57.5344C329.92 58.3718 328.332 58.7905 326.46 58.7905ZM337.421 31.0101H342.149V42.2774H342.334C342.728 41.243 343.344 40.3811 344.181 39.6915C345.043 38.9773 346.225 38.6202 347.727 38.6202C349.722 38.6202 351.249 39.2728 352.308 40.5781C353.367 41.8834 353.897 43.7428 353.897 46.1563V58.3472H349.168V46.6366C349.168 45.2574 348.922 44.223 348.429 43.5334C347.937 42.8439 347.124 42.4991 345.991 42.4991C345.499 42.4991 345.018 42.5729 344.55 42.7207C344.107 42.8439 343.701 43.0409 343.331 43.3118C342.987 43.5581 342.703 43.8782 342.482 44.2723C342.26 44.6417 342.149 45.085 342.149 45.6022V58.3472H337.421V31.0101ZM366.416 58.7905C365.037 58.7905 363.793 58.5565 362.685 58.0886C361.601 57.6206 360.665 56.9434 359.877 56.0568C359.114 55.1702 358.523 54.1112 358.104 52.8798C357.685 51.6237 357.476 50.2199 357.476 48.6684C357.476 47.1168 357.685 45.7253 358.104 44.4939C358.523 43.2625 359.114 42.2158 359.877 41.3539C360.665 40.4673 361.601 39.79 362.685 39.3221C363.793 38.8541 365.037 38.6202 366.416 38.6202C367.795 38.6202 369.039 38.8541 370.147 39.3221C371.255 39.79 372.191 40.4673 372.955 41.3539C373.743 42.2158 374.346 43.2625 374.765 44.4939C375.184 45.7253 375.393 47.1168 375.393 48.6684C375.393 50.2199 375.184 51.6237 374.765 52.8798C374.346 54.1112 373.743 55.1702 372.955 56.0568C372.191 56.9434 371.255 57.6206 370.147 58.0886C369.039 58.5565 367.795 58.7905 366.416 58.7905ZM366.416 54.9854C367.672 54.9854 368.657 54.6037 369.371 53.8402C370.086 53.0768 370.443 51.9562 370.443 50.4785V46.8952C370.443 45.4421 370.086 44.3338 369.371 43.5704C368.657 42.8069 367.672 42.4252 366.416 42.4252C365.185 42.4252 364.212 42.8069 363.498 43.5704C362.783 44.3338 362.426 45.4421 362.426 46.8952V50.4785C362.426 51.9562 362.783 53.0768 363.498 53.8402C364.212 54.6037 365.185 54.9854 366.416 54.9854Z" fill="#2A2C2F"/>
</g>
<defs>
<filter id="filter0_d_10829_21405" x="0.126304" y="0" width="427.747" height="96.7474" filterUnits="userSpaceOnUse" color-interpolation-filters="sRGB">
<feFlood flood-opacity="0" result="BackgroundImageFix"/>
<feColorMatrix in="SourceAlpha" type="matrix" values="0 0 0 0 0 0 0 0 0 0 0 0 0 0 0 0 0 0 127 0" result="hardAlpha"/>
<feOffset dy="3.3737"/>
<feGaussianBlur stdDeviation="1.68685"/>
<feComposite in2="hardAlpha" operator="out"/>
<feColorMatrix type="matrix" values="0 0 0 0 0 0 0 0 0 0 0 0 0 0 0 0 0 0 0.1 0"/>
<feBlend mode="normal" in2="BackgroundImageFix" result="effect1_dropShadow_10829_21405"/>
<feBlend mode="normal" in="SourceGraphic" in2="effect1_dropShadow_10829_21405" result="shape"/>
</filter>
</defs>
</svg>
